<?xml version="1.0" encoding="UTF-8"?>
<svg version="1.1" xmlns="http://www.w3.org/2000/svg" width="256" height="256" viewBox="0 0 256 256">
  <!-- Title text -->
  <text x="128" y="38" text-anchor="middle" font-family="sans-serif" font-size="18" font-weight="bold" fill="#FEFEFD">Practicing Prayer</text>

  <!-- Praying hands icon (scaled from 512 to fit ~160px, centered) -->
  <g transform="translate(128,140) scale(0.35)">
    <path d="M0 0 C4.7347465 2.99736845 7.86253071 5.9621145 10.55078125 10.87109375 C11.10765625 9.54078125 11.10765625 9.54078125 11.67578125 8.18359375 C14.3062671 3.53640208 17.37062394 0.59781285 22.55078125 -1.12890625 C29.71195339 -1.74624868 35.4686523 -0.4183888 41.16015625 4.16796875 C45.44548077 9.05828026 45.53137565 15.33831113 46.09375 21.54296875 C46.32196256 25.00057249 46.32196256 25.00057249 48.55078125 27.87109375 C48.859375 30.5234375 48.859375 30.5234375 48.98828125 33.80859375 C49.32720727 39.63574283 50.00392172 45.29682686 50.92578125 51.05859375 C52.20306506 59.1216925 53.18217198 67.1916687 54.05078125 75.30859375 C55.79435173 97.85916014 55.79435173 97.85916014 62.3515625 119.25 C64.35594171 123.630907 65.46900425 128.19019705 66.55078125 132.87109375 C66.74542969 133.69609375 66.94007813 134.52109375 67.140625 135.37109375 C68.04310839 139.69247405 68.59705295 143.76468405 68.5078125 148.1796875 C68.31255618 157.10355826 68.31255618 157.10355826 71.671875 165.15625 C74.48540254 167.99372245 77.38320581 170.43722819 80.55078125 172.87109375 C81.59080049 173.74161875 82.62601352 174.61791916 83.65625 175.5 C88.32683823 179.58950048 88.32683823 179.58950048 93.55078125 182.87109375 C95.42322721 181.85187647 95.42322721 181.85187647 97.48828125 180.43359375 C103.64349517 176.90223705 109.27409323 176.75085189 116.0859375 178.53515625 C127.31529426 182.62826569 137.10980975 190.20546749 145.78190613 198.29356384 C147.57356416 199.95046524 147.57356416 199.95046524 149.81440735 201.47511292 C153.86118095 204.70905414 156.61860357 207.62278614 157.34222412 212.84680176 C157.70866834 217.79472899 157.56409129 222.73270059 157.4296875 227.6875 C157.41287882 229.51306506 157.40007833 231.33867103 157.39109802 233.16429138 C157.35691005 237.94440942 157.26866296 242.7220237 157.16876221 247.50115967 C157.07630816 252.38779841 157.0355082 257.27484611 156.99023438 262.16210938 C156.8940234 271.73286447 156.74063986 281.30177006 156.55078125 290.87109375 C144.43307152 291.0334916 132.31562188 291.15776872 120.19704437 291.23377895 C114.56944766 291.27026585 108.94259703 291.31973405 103.31542969 291.39916992 C97.88184814 291.47539048 92.44898285 291.51711821 87.01490784 291.53523445 C84.94483671 291.54813969 82.87480352 291.57334156 80.80503845 291.61120415 C77.89847016 291.66224588 74.99483706 291.66900833 72.08789062 291.66577148 C70.8125798 291.70352188 70.8125798 291.70352188 69.51150513 291.74203491 C63.5007429 291.66990939 60.49388438 289.83627284 56.16118622 285.72383213 C49.50928047 278.07094896 51.39043706 267.89062152 51.75585938 258.4296875 C51.78228516 257.26050781 51.80871094 256.09132813 51.8359375 254.88671875 C51.875979 253.82743164 51.91602051 252.76814453 51.95727539 251.67675781 C51.44675425 248.15308876 50.30483856 247.0441922 47.55078125 244.87109375 C45.51864389 244.1561849 45.51864389 244.1561849 43.36328125 243.93359375 C31.9892182 241.74055545 22.48048231 233.50751866 16.05078125 224.12109375 C13.55442151 220.20238951 11.55078125 216.58677648 11.55078125 211.87109375 C10.89078125 211.87109375 10.23078125 211.87109375 9.55078125 211.87109375 C9.46828125 212.53109375 9.38578125 213.19109375 9.30078125 213.87109375 C6.73384009 224.13885838 -0.78791009 233.07408712 -9.56640625 238.8515625 C-14.4275104 241.48382014 -19.61799565 243.30507934 -24.88671875 244.93359375 C-27.65193416 245.94525793 -28.70437563 246.53276443 -30.44921875 248.87109375 C-30.8151317 251.64690309 -30.8151317 251.64690309 -30.63671875 254.7890625 C-30.61351562 255.96146484 -30.5903125 257.13386719 -30.56640625 258.34179688 C-30.48889644 260.80014968 -30.41078128 263.25848348 -30.33203125 265.71679688 C-30.05315869 279.88507225 -30.05315869 279.88507225 -35.203125 285.9296875 C-35.79996094 286.38472656 -36.39679688 286.83976562 -37.01171875 287.30859375 C-37.61113281 287.78167969 -38.21054688 288.25476563 -38.828125 288.7421875 C-42.75953164 291.47996224 -46.58813292 291.00390079 -51.21337891 290.98461914 C-52.12075302 290.98476517 -53.02812714 290.98491119 -53.96299744 290.98506165 C-56.97144943 290.98436326 -59.97984003 290.97657429 -62.98828125 290.96875 C-65.07050543 290.96688556 -67.15273006 290.96546178 -69.23495483 290.96446228 C-74.72258713 290.96063916 -80.21019308 290.95081061 -85.69781494 290.9397583 C-91.29463342 290.92953977 -96.89145614 290.92496371 -102.48828125 290.91992188 C-113.47527201 290.90918818 -124.46224319 290.8921142 -135.44921875 290.87109375 C-135.79877721 280.43977265 -136.06427437 270.00987185 -136.22640133 259.57385921 C-136.30427298 254.72607173 -136.40961284 249.88232598 -136.58081055 245.03686523 C-137.80984614 209.33212738 -137.80984614 209.33212738 -130.31227112 200.87428284 C-127.79211464 198.61496528 -125.24604671 196.69930923 -122.33027649 194.9813385 C-120.45978945 193.87733283 -118.79806252 192.66231832 -117.0949707 191.31713867 C-114.61518593 189.36357885 -112.08448751 187.60541592 -109.44921875 185.87109375 C-108.41796875 185.12859375 -107.38671875 184.38609375 -106.32421875 183.62109375 C-98.51607536 178.86831082 -91.74965017 176.34987957 -82.44921875 177.87109375 C-79.88145157 179.04416596 -77.67977632 180.33103549 -75.38671875 181.97265625 C-74.42765625 182.41738281 -74.42765625 182.41738281 -73.44921875 182.87109375 C-70.54248983 181.70050387 -68.3380545 180.09012473 -65.98828125 178.04296875 C-65.03308594 177.21345703 -65.03308594 177.21345703 -64.05859375 176.3671875 C-63.40375 175.79097656 -62.74890625 175.21476563 -62.07421875 174.62109375 C-61.42710937 174.06035156 -60.78 173.49960937 -60.11328125 172.921875 C-58.8271342 171.79908937 -57.55042812 170.66539159 -56.28369141 169.52075195 C-55.09780778 168.4543405 -53.88998718 167.41162153 -52.65771484 166.39916992 C-49.44606906 163.59290986 -48.53687678 162.38002597 -47.78515625 158.015625 C-47.77511545 156.57159079 -47.78937479 155.12724243 -47.82421875 153.68359375 C-47.59512696 140.17975053 -44.93455667 127.25256515 -39.59765625 114.828125 C-36.49363131 106.83578867 -35.60209003 98.51235655 -34.51171875 90.05859375 C-34.25394653 88.09805054 -34.25394653 88.09805054 -33.9909668 86.09790039 C-32.65810055 75.87694156 -31.48314996 65.63999612 -30.40063477 55.3894043 C-30.23325806 53.81606323 -30.23325806 53.81606323 -30.0625 52.2109375 C-29.92001831 50.83989868 -29.92001831 50.83989868 -29.7746582 49.44116211 C-29.45084854 46.88396459 -28.95525915 44.39741112 -28.44921875 41.87109375 C-28.1916944 38.26575289 -28.00748072 34.66079204 -27.828125 31.05078125 C-27.44921875 27.87109375 -27.44921875 27.87109375 -25.44921875 24.87109375 C-25.22797878 22.77351477 -25.09194217 20.6662818 -25.01171875 18.55859375 C-24.52965908 11.43043266 -23.31091104 7.37732986 -17.94921875 2.55859375 C-12.75095213 -1.7846948 -6.23696857 -2.87477498 0 0 Z " fill="#FEDB5D" transform="translate(0,-89)"/>
    <path d="M0 0 C2.16639951 1.19560728 4.21500838 2.44325877 6.234375 3.87109375 C6.234375 6.87109375 6.234375 6.87109375 4.9140625 8.546875 C3.07844084 10.21164876 1.39339745 11.64793789 -0.765625 12.87109375 C-3.890625 12.24609375 -3.890625 12.24609375 -6.765625 10.87109375 C-9.47516051 10.61913246 -9.47516051 10.61913246 -11.765625 10.87109375 C-13.99707829 13.10254704 -13.19568322 17.46604613 -13.21875 20.46508789 C-13.02140691 28.63110702 -10.13841192 35.53497463 -6.765625 42.87109375 C-6.44996582 43.55913086 -6.13430664 44.24716797 -5.80908203 44.95605469 C1.33473786 60.27189044 10.09102977 73.98073488 22.234375 85.87109375 C22.81960937 86.46535156 23.40484375 87.05960937 24.0078125 87.671875 C27.18466324 90.67051216 28.62014946 91.80174571 33.109375 92.30859375 C36.09592433 92.2102906 36.09592433 92.2102906 37.234375 90.87109375 C37.26100456 88.82949446 37.28059715 86.78780182 37.296875 84.74609375 C37.53774183 80.83630902 37.68433479 78.59243886 40.078125 75.453125 C42.06023057 73.7606581 44.02685587 72.25393603 46.234375 70.87109375 C48.87831178 73.90448828 49.61684556 75.78298564 49.6328125 79.79296875 C49.63667969 80.7365625 49.64054687 81.68015625 49.64453125 82.65234375 C49.63292969 83.63203125 49.62132812 84.61171875 49.609375 85.62109375 C49.62097656 86.5853125 49.63257813 87.54953125 49.64453125 88.54296875 C49.6166674 95.37889931 49.09552348 101.51290834 44.48046875 106.9296875 C43.88363281 107.38472656 43.28679687 107.83976562 42.671875 108.30859375 C42.07246094 108.78167969 41.47304687 109.25476563 40.85546875 109.7421875 C36.92406211 112.47996224 33.09546083 112.00390079 28.47021484 111.98461914 C27.56284073 111.98476517 26.65546661 111.98491119 25.72059631 111.98506165 C22.71214432 111.98436326 19.70375372 111.97657429 16.6953125 111.96875 C14.61308832 111.96688556 12.53086369 111.96546178 10.44863892 111.96446228 C4.96100662 111.96063916 -0.52659933 111.95081061 -6.01422119 111.9397583 C-11.61103967 111.92953977 -17.20786239 111.92496371 -22.8046875 111.91992188 C-33.79167826 111.90918818 -44.77864944 111.8921142 -55.765625 111.87109375 C-56.11518346 101.43977265 -56.38068062 91.00987185 -56.54280758 80.57385921 C-56.62067923 75.72607173 -56.72601909 70.88232598 -56.8972168 66.03686523 C-58.12625239 30.33212738 -58.12625239 30.33212738 -50.62867737 21.87428284 C-48.10852089 19.61496528 -45.56245296 17.69930923 -42.64668274 15.9813385 C-40.7761957 14.87733283 -39.11446877 13.66231832 -37.41137695 12.31713867 C-34.93159218 10.36357885 -32.40089376 8.60541592 -29.765625 6.87109375 C-28.21875 5.75734375 -28.21875 5.75734375 -26.640625 4.62109375 C-18.30679252 -0.45167384 -9.65252332 -3.94008367 0 0 Z " fill="#FEFEFD" transform="translate(-79.234375,90.12890625)"/>
    <path d="M0 0 C10.15747345 4.6068541 19.10010797 11.27651561 27.23112488 18.85997009 C29.02278291 20.51687149 29.02278291 20.51687149 31.2636261 22.04151917 C35.3103997 25.27546039 38.06782232 28.18919239 38.79144287 33.41320801 C39.15788709 38.36113524 39.01331004 43.29910684 38.87890625 48.25390625 C38.86209757 50.07947131 38.84929708 51.90507728 38.84031677 53.73069763 C38.8061288 58.51081567 38.71788171 63.28842995 38.61798096 68.06756592 C38.52552691 72.95420466 38.48472695 77.84125236 38.43945312 82.72851562 C38.34324215 92.29927072 38.18985861 101.86817631 38 111.4375 C25.88229027 111.59989785 13.76484063 111.72417497 1.64626312 111.8001852 C-3.98133359 111.8366721 -9.60818422 111.8861403 -15.23535156 111.96557617 C-20.66893311 112.04179673 -26.1017984 112.08352446 -31.53587341 112.1016407 C-33.60594454 112.11454594 -35.67597773 112.13974781 -37.7457428 112.1776104 C-40.65231109 112.22865213 -43.55594419 112.23541458 -46.46289062 112.23217773 C-47.73820145 112.26992813 -47.73820145 112.26992813 -49.03927612 112.30844116 C-55.04411816 112.23638668 -58.05677826 110.40611871 -62.39226532 106.30549717 C-67.66131482 100.18348607 -67.46785446 92.90473742 -67.375 85.1875 C-67.38660156 84.2078125 -67.39820313 83.228125 -67.41015625 82.21875 C-67.40628906 81.27515625 -67.40242188 80.3315625 -67.3984375 79.359375 C-67.39505371 78.50956055 -67.39166992 77.65974609 -67.38818359 76.78417969 C-66.92269446 73.97016616 -65.85361189 72.56415303 -64 70.4375 C-60.82604273 72.42574203 -58.27943959 74.4481502 -56 77.4375 C-55.24131666 80.94641046 -55.06374103 84.15683951 -55.03515625 87.7421875 C-55.31459853 90.35550957 -55.31459853 90.35550957 -54 91.4375 C-47.69509606 91.4375 -44.62642728 89.98087208 -40.125 85.62890625 C-39.42375 84.90574219 -38.7225 84.18257813 -38 83.4375 C-37.21625 82.66277344 -36.4325 81.88804687 -35.625 81.08984375 C-20.58774733 65.51218981 -4.01348073 38.70972683 -3.5 16.4375 C-3.63202202 13.26897142 -3.6793091 12.7581909 -6 10.4375 C-9.12839964 10.72716663 -12.01445763 11.06055949 -14.9609375 12.1875 C-17 12.4375 -17 12.4375 -19.140625 11.07421875 C-19.83671875 10.43097656 -20.5328125 9.78773438 -21.25 9.125 C-21.95640625 8.48949219 -22.6628125 7.85398437 -23.390625 7.19921875 C-25 5.4375 -25 5.4375 -25 3.4375 C-16.83327039 -2.20863405 -9.43512506 -3.43911056 0 0 Z " fill="#FEFEFD" transform="translate(119,90.5625)"/>
    <path d="M0 0 C4.7347465 2.99736845 7.86253071 5.9621145 10.55078125 10.87109375 C10.92203125 9.98421875 11.29328125 9.09734375 11.67578125 8.18359375 C14.3062671 3.53640208 17.37062394 0.59781285 22.55078125 -1.12890625 C29.04435645 -1.68869722 34.02356145 -0.71896711 39.55078125 2.87109375 C44.0813984 7.31561841 45.4605236 11.7267631 45.59765625 18.0234375 C45.61135912 19.97267071 45.58438456 21.92210204 45.55078125 23.87109375 C44.80634766 23.3296875 44.80634766 23.3296875 44.046875 22.77734375 C39.40242496 19.6046644 36.34161447 18.02879074 30.55078125 18.87109375 C26.13414497 20.08947617 23.36658366 21.58103529 20.67578125 25.24609375 C15.4671357 34.96128746 17.40462094 48.38068387 17.40893555 59.15454102 C17.40589595 60.74600825 17.40237232 62.33747462 17.39840698 63.92893982 C17.39058534 67.32764847 17.38539913 70.72634695 17.38211632 74.12506294 C17.37615856 79.49982472 17.35957897 84.87452198 17.34077454 90.24925232 C17.33443959 92.0953035 17.32811393 93.94135472 17.32179737 95.78740597 C17.31863156 96.71098302 17.31546575 97.63456007 17.312204 98.5861243 C17.27022005 111.08059887 17.23709474 123.57503945 17.22485352 136.06958008 C17.21648354 144.52650723 17.19404738 152.98327033 17.15549785 161.44011539 C17.13573025 165.90807064 17.12333566 170.37578064 17.12833214 174.84378242 C17.13296486 179.0358566 17.11924945 183.22746326 17.09132004 187.41944313 C17.08438968 188.95775061 17.08430149 190.49610624 17.09152031 192.03441238 C17.10037406 194.13263769 17.08477611 196.22930903 17.06303406 198.32740784 C17.0606457 199.50147973 17.05825735 200.67555162 17.05579662 201.88520145 C16.44422111 205.50112821 15.25442869 206.5029443 12.55078125 208.87109375 C12.22078125 209.86109375 11.89078125 210.85109375 11.55078125 211.87109375 C10.89078125 211.87109375 10.23078125 211.87109375 9.55078125 211.87109375 C9.55078125 210.88109375 9.55078125 209.89109375 9.55078125 208.87109375 C8.91140625 208.56171875 8.27203125 208.25234375 7.61328125 207.93359375 C5.55078125 206.87109375 5.55078125 206.87109375 4.55078125 205.87109375 C4.44385969 203.79960785 4.40831909 201.72443137 4.39929199 199.65020752 C4.39505958 198.99290642 4.39082717 198.33560531 4.3864665 197.65838599 C4.37337306 195.43924736 4.36740003 193.22014472 4.36132812 191.00097656 C4.35339019 189.41602862 4.34500259 187.83108288 4.3361969 186.24613953 C4.31809475 182.8226917 4.30309441 179.39924886 4.29042053 175.97577667 C4.27021873 170.55329818 4.24255709 165.13087369 4.21374512 159.70843506 C4.15355849 148.17934674 4.10188054 136.65022533 4.05078125 125.12109375 C3.99565535 112.71602196 3.93887267 100.31096678 3.87323236 87.90594554 C3.84504253 82.52637832 3.82138729 77.14681667 3.80130768 71.76721334 C3.78780623 68.4003369 3.77039952 65.0334884 3.75199699 61.66663551 C3.74431763 60.11759725 3.73821538 58.56855013 3.73390388 57.01949883 C4.80792078 38.235857 4.80792078 38.235857 -2.44921875 21.87109375 C-5.38922164 19.39530184 -6.99880092 18.92114018 -10.82421875 18.49609375 C-16.11466824 19.04338163 -20.0580215 20.94362892 -24.44921875 23.87109375 C-25.02402656 10.71438175 -25.02402656 10.71438175 -21.44921875 5.87109375 C-15.38869952 -0.18942548 -8.47148135 -3.90471788 0 0 Z " fill="#F7C955" transform="translate(0,-89)"/>
  </g>

  <!-- Subtitle text -->
  <text x="128" y="232" text-anchor="middle" font-family="sans-serif" font-size="12" fill="#D4DBC8">A personal worship tool</text>
</svg>
